<svg width="132" height="58" viewBox="0 0 132 58" fill="none" xmlns="http://www.w3.org/2000/svg">
<path d="M16.7213 1.93333V3.86667H4.125C1.84684 3.86667 0 4.73226 0 5.8V56.0667C0 57.1343 1.84684 58 4.125 58H127.875C130.153 58 132 57.1343 132 56.0667V5.8C132 4.73226 130.153 3.86667 127.875 3.86667H115.279V1.93333C115.279 0.865592 113.432 0 111.154 0H86.1721C78.3964 0 71.1117 1.56569 66 4.21544C60.8879 1.56569 53.6036 0 45.8283 0H20.8463C18.5681 0 16.7213 0.865592 16.7213 1.93333ZM107.029 5.66142C107.021 5.7072 107.018 5.75341 107.018 5.8C107.018 5.84659 107.021 5.8928 107.029 5.93858V46.1726H87.6167C81.1437 46.1726 75.0181 47.2205 70.125 49.0467V8.03837C73.642 5.43912 79.6851 3.86667 86.1721 3.86667H107.029V5.66142ZM115.279 7.73333H123.75V54.1333H71.1728C74.8976 51.5844 81.0257 50.0393 87.6167 50.0393H111.154C113.432 50.0393 115.279 49.1736 115.279 48.106V7.73333ZM44.3831 50.0393C50.9742 50.0393 57.102 51.5844 60.8269 54.1333H8.25V7.73333H16.7213V48.106C16.7213 49.1736 18.5681 50.0393 20.8463 50.0393H44.3831ZM24.9713 46.1726V5.93854C24.9782 5.8928 24.9817 5.84659 24.9817 5.8C24.9817 5.75341 24.9782 5.7072 24.9713 5.66146V3.86667H45.8283C52.3148 3.86667 58.3584 5.43912 61.875 8.03837V49.0467C56.9818 47.2205 50.8564 46.1726 44.3831 46.1726H24.9713Z" fill="#212121"/>
</svg>
