<svg width="95" height="87" viewBox="0 0 95 87" fill="none" xmlns="http://www.w3.org/2000/svg">
<path d="M45.869 0L0 19.9462V30.3233H95V19.8912L45.869 0ZM88.6667 24.6034H6.33333V23.5405L45.9644 6.30698L88.6667 23.5956V24.6034Z" fill="black"/>
<path d="M88.6667 70.3632H6.33334V76.0831H88.6667V70.3632Z" fill="black"/>
<path d="M95 80.373H0V86.093H95V80.373Z" fill="black"/>
<path d="M14.25 36.0431H7.91666V64.6429H14.25V36.0431Z" fill="black"/>
<path d="M87.0833 36.0431H80.75V64.6429H87.0833V36.0431Z" fill="black"/>
<path d="M68.0833 36.0431H61.75V64.6429H68.0833V36.0431Z" fill="black"/>
<path d="M33.25 36.0431H26.9167V64.6429H33.25V36.0431Z" fill="black"/>
<path d="M77.1014 23.3811H71.5942V46.7622H77.1014V23.3811Z" fill="black"/>
</svg>
