<svg width="20" height="20" viewBox="0 0 20 20" fill="none" xmlns="http://www.w3.org/2000/svg">
<path d="M17.687 6.8598L12.8689 6.15958L10.7151 1.79311C10.6563 1.67356 10.5595 1.57678 10.44 1.51795C10.1401 1.36994 9.77578 1.49328 9.62587 1.79311L7.47205 6.15958L2.65394 6.8598C2.52111 6.87878 2.39966 6.9414 2.30668 7.03628C2.19426 7.15183 2.13232 7.30727 2.13445 7.46846C2.13659 7.62965 2.20263 7.78339 2.31806 7.89592L5.80402 11.2946L4.98045 16.0937C4.96114 16.2054 4.97349 16.3202 5.01611 16.4251C5.05873 16.5301 5.12991 16.621 5.22158 16.6876C5.31325 16.7542 5.42174 16.7938 5.53475 16.8018C5.64776 16.8099 5.76076 16.7861 5.86095 16.7332L10.1705 14.4674L14.48 16.7332C14.5977 16.7958 14.7343 16.8167 14.8652 16.7939C15.1954 16.737 15.4175 16.4239 15.3605 16.0937L14.537 11.2946L18.0229 7.89592C18.1178 7.80293 18.1804 7.68148 18.1994 7.54865C18.2506 7.21656 18.0191 6.90914 17.687 6.8598V6.8598ZM13.0701 10.8164L13.7551 14.8071L10.1705 12.9247L6.58585 14.809L7.2709 10.8183L4.37131 7.9908L8.37912 7.40822L10.1705 3.77804L11.9619 7.40822L15.9697 7.9908L13.0701 10.8164Z" fill="#09B451"/>
</svg>
