<svg width="18" height="18" viewBox="0 0 18 18" fill="none" xmlns="http://www.w3.org/2000/svg">
<path d="M6.65903 2.82959C5.70466 2.82959 4.78937 3.20871 4.11452 3.88356C3.43967 4.55841 3.06055 5.4737 3.06055 6.42807C3.06055 7.38245 3.43967 8.29774 4.11452 8.97259C4.78937 9.64743 5.70466 10.0266 6.65903 10.0266C7.61341 10.0266 8.5287 9.64743 9.20355 8.97259C9.87839 8.29774 10.2575 7.38245 10.2575 6.42807C10.2575 5.4737 9.87839 4.55841 9.20355 3.88356C8.5287 3.20871 7.61341 2.82959 6.65903 2.82959V2.82959ZM4.49994 6.42807C4.49994 5.85545 4.72742 5.30628 5.13233 4.90137C5.53723 4.49646 6.08641 4.26898 6.65903 4.26898C7.23166 4.26898 7.78083 4.49646 8.18574 4.90137C8.59065 5.30628 8.81812 5.85545 8.81812 6.42807C8.81812 7.0007 8.59065 7.54987 8.18574 7.95478C7.78083 8.35969 7.23166 8.58717 6.65903 8.58717C6.08641 8.58717 5.53723 8.35969 5.13233 7.95478C4.72742 7.54987 4.49994 7.0007 4.49994 6.42807ZM12.3504 6.58497C12.148 6.48184 11.9241 6.42808 11.6969 6.42807V4.98868C12.1514 4.98871 12.5995 5.09636 13.0044 5.30281C13.4093 5.50926 13.7595 5.80865 14.0265 6.17648C14.2935 6.54431 14.4696 6.97013 14.5404 7.41909C14.6112 7.86805 14.5746 8.32739 14.4338 8.75952C14.293 9.19165 14.0518 9.5843 13.7301 9.90533C13.4083 10.2264 13.0152 10.4666 12.5827 10.6065C12.1503 10.7464 11.6909 10.7819 11.2421 10.7101C10.7933 10.6383 10.3678 10.4613 10.0006 10.1935L10.8484 9.0305C11.0089 9.14732 11.1918 9.22967 11.3857 9.27238C11.5796 9.31509 11.7802 9.31724 11.9749 9.27869C12.1697 9.24014 12.3543 9.16172 12.5173 9.04837C12.6803 8.93501 12.818 8.78917 12.9219 8.62001C13.0258 8.45085 13.0936 8.26203 13.121 8.06541C13.1484 7.8688 13.1349 7.66864 13.0812 7.47751C13.0275 7.28639 12.9349 7.10843 12.8091 6.95483C12.6833 6.80123 12.5272 6.67531 12.3504 6.58497ZM14.5743 15.7841C14.5741 15.0211 14.2709 14.2893 13.7313 13.7498C13.1917 13.2102 12.46 12.907 11.6969 12.9068V11.466C12.8421 11.4661 13.9403 11.9212 14.7501 12.7309C15.5599 13.5407 16.0149 14.6389 16.0151 15.7841H14.5743ZM11.6969 15.7841H10.2575C10.2575 14.8298 9.87839 13.9145 9.20355 13.2396C8.5287 12.5648 7.61341 12.1857 6.65903 12.1857C5.70466 12.1857 4.78937 12.5648 4.11452 13.2396C3.43967 13.9145 3.06055 14.8298 3.06055 15.7841H1.62115C1.62115 14.448 2.15193 13.1666 3.09672 12.2218C4.0415 11.277 5.32291 10.7463 6.65903 10.7463C7.99516 10.7463 9.27657 11.277 10.2214 12.2218C11.1661 13.1666 11.6969 14.448 11.6969 15.7841V15.7841Z" fill="#09B451"/>
</svg>
