<svg width="66" height="66" viewBox="0 0 66 66" fill="none" xmlns="http://www.w3.org/2000/svg">
<rect width="64.7727" height="64.7727" rx="32.3864" transform="matrix(-1 0 0 1 65.5684 0.54541)" fill="white"/>
<path fill-rule="evenodd" clip-rule="evenodd" d="M26.7722 39.6788L36.893 32.9317L26.7722 26.1845C26.6393 26.0959 26.5251 25.982 26.4363 25.8492C26.3474 25.7165 26.2855 25.5676 26.2542 25.411C26.2229 25.2543 26.2227 25.0931 26.2537 24.9364C26.2847 24.7797 26.3462 24.6306 26.4349 24.4977C26.5235 24.3648 26.6374 24.2506 26.7701 24.1618C26.9028 24.0729 27.0517 24.011 27.2084 23.9797C27.365 23.9483 27.5263 23.9482 27.683 23.9792C27.8397 24.0102 27.9887 24.0717 28.1216 24.1603L39.5945 31.8089C39.7793 31.9322 39.9309 32.0991 40.0357 32.295C40.1405 32.4908 40.1953 32.7095 40.1953 32.9317C40.1953 33.1538 40.1405 33.3725 40.0357 33.5683C39.9309 33.7642 39.7793 33.9311 39.5945 34.0544L28.1216 41.703C27.9887 41.7916 27.8397 41.8531 27.683 41.8841C27.5263 41.9151 27.365 41.915 27.2084 41.8836C27.0517 41.8523 26.9028 41.7904 26.7701 41.7015C26.6374 41.6127 26.5235 41.4985 26.4349 41.3656C26.3462 41.2327 26.2847 41.0836 26.2537 40.9269C26.2227 40.7702 26.2229 40.609 26.2542 40.4523C26.2855 40.2957 26.3474 40.1468 26.4363 40.0141C26.5251 39.8813 26.6393 39.7674 26.7722 39.6788Z" fill="#09B451"/>
</svg>
