<svg width="66" height="66" viewBox="0 0 66 66" fill="none" xmlns="http://www.w3.org/2000/svg">
<rect x="0.988647" y="0.54541" width="64.7727" height="64.7727" rx="32.3864" fill="white"/>
<path fill-rule="evenodd" clip-rule="evenodd" d="M39.7848 39.6788L29.6641 32.9317L39.7848 26.1845C39.9177 26.0959 40.0319 25.982 40.1207 25.8492C40.2096 25.7165 40.2715 25.5676 40.3028 25.411C40.3341 25.2543 40.3343 25.0931 40.3033 24.9364C40.2723 24.7797 40.2108 24.6306 40.1222 24.4977C40.0335 24.3648 39.9196 24.2506 39.7869 24.1618C39.6542 24.0729 39.5053 24.011 39.3486 23.9797C39.192 23.9483 39.0307 23.9482 38.874 23.9792C38.7173 24.0102 38.5683 24.0717 38.4354 24.1603L26.9625 31.8089C26.7777 31.9322 26.6261 32.0991 26.5213 32.295C26.4165 32.4908 26.3617 32.7095 26.3617 32.9317C26.3617 33.1538 26.4165 33.3725 26.5213 33.5683C26.6261 33.7642 26.7777 33.9311 26.9625 34.0544L38.4354 41.703C38.5683 41.7916 38.7173 41.8531 38.874 41.8841C39.0307 41.9151 39.192 41.915 39.3486 41.8836C39.5053 41.8523 39.6542 41.7904 39.7869 41.7015C39.9196 41.6127 40.0335 41.4985 40.1222 41.3656C40.2108 41.2327 40.2723 41.0836 40.3033 40.9269C40.3343 40.7702 40.3341 40.609 40.3028 40.4523C40.2715 40.2957 40.2096 40.1468 40.1207 40.0141C40.0319 39.8813 39.9177 39.7674 39.7848 39.6788Z" fill="#09B451"/>
</svg>
