<svg width="66" height="60" viewBox="0 0 66 60" fill="none" xmlns="http://www.w3.org/2000/svg">
<rect width="66" height="60" rx="30" transform="matrix(-1 0 0 1 66 0)" fill="#89C4C4"/>
<path fill-rule="evenodd" clip-rule="evenodd" d="M26.4686 36.25L36.7811 30L26.4686 23.75C26.3331 23.6679 26.2168 23.5624 26.1263 23.4395C26.0357 23.3165 25.9726 23.1786 25.9407 23.0335C25.9088 22.8884 25.9086 22.739 25.9402 22.5938C25.9718 22.4487 26.0345 22.3106 26.1248 22.1875C26.2151 22.0644 26.3312 21.9586 26.4664 21.8763C26.6016 21.794 26.7534 21.7367 26.913 21.7076C27.0726 21.6786 27.2369 21.6785 27.3966 21.7072C27.5563 21.7359 27.7081 21.7929 27.8436 21.875L39.5338 28.96C39.7221 29.0742 39.8765 29.2288 39.9833 29.4102C40.0901 29.5917 40.146 29.7942 40.146 30C40.146 30.2058 40.0901 30.4083 39.9833 30.5898C39.8765 30.7712 39.7221 30.9258 39.5338 31.04L27.8436 38.125C27.7081 38.2071 27.5563 38.2641 27.3966 38.2928C27.2369 38.3215 27.0726 38.3214 26.913 38.2924C26.7534 38.2633 26.6016 38.206 26.4664 38.1237C26.3312 38.0414 26.2151 37.9356 26.1248 37.8125C26.0345 37.6894 25.9718 37.5513 25.9402 37.4062C25.9086 37.261 25.9088 37.1116 25.9407 36.9665C25.9726 36.8214 26.0357 36.6835 26.1263 36.5605C26.2168 36.4376 26.3331 36.3321 26.4686 36.25Z" fill="#E9E9E9"/>
</svg>
