<svg width="334" height="80" viewBox="0 0 334 80" fill="none" xmlns="http://www.w3.org/2000/svg">
<path fill-rule="evenodd" clip-rule="evenodd" d="M0 36.7038C0 54.8504 9.15962 69.9401 21.1392 73V46.6379H14.7974V36.5H21.1392V28.3879C21.1392 19.2629 25.2254 14.1955 31.0049 14.1955C32.8355 14.1955 34.8099 14.6 36.6406 15.0045V24.3333H33.4C30.2988 24.3333 29.5949 26.5629 29.5949 29.4038V36.5H36.3594L35.2327 46.6379H29.5949V73C41.5745 69.9401 50.7341 54.8534 50.7341 36.7038C50.7341 16.5163 39.3189 0 25.3671 0C11.4152 0 0 16.5163 0 36.7038Z" fill="#0AC75A" fill-opacity="0.8"/>
<path fill-rule="evenodd" clip-rule="evenodd" d="M210.16 6.28412C212.64 6.11987 213.43 6.08337 219.747 6.08337C226.063 6.08337 226.854 6.12292 229.331 6.28412C231.809 6.44533 233.5 7.01412 234.98 7.83842C236.529 8.68096 237.935 9.998 239.098 11.7013C240.281 13.3712 241.195 15.3909 241.778 17.6235C242.353 19.7526 242.746 22.186 242.86 25.7447C242.975 29.3187 243 30.4562 243 39.5417C243 48.6302 242.972 49.7678 242.86 53.3357C242.748 56.8944 242.353 59.3277 241.778 61.4569C241.195 63.6898 240.28 65.7128 239.098 67.3851C237.935 69.0885 236.529 70.4025 234.98 71.242C233.5 72.0693 231.809 72.635 229.336 72.7993C226.854 72.9635 226.063 73 219.747 73C213.43 73 212.64 72.9605 210.16 72.7993C207.687 72.6381 205.996 72.0693 204.516 71.242C202.964 70.4023 201.558 69.0862 200.396 67.3851C199.213 65.7142 198.297 63.6922 197.713 61.46C197.141 59.3308 196.747 56.8975 196.633 53.3387C196.519 49.7647 196.494 48.6272 196.494 39.5417C196.494 30.4532 196.521 29.3156 196.633 25.7508C196.745 22.186 197.141 19.7526 197.713 17.6235C198.298 15.3911 199.215 13.3691 200.398 11.6983C201.559 9.99648 202.963 8.67926 204.514 7.83842C205.994 7.01412 207.685 6.44837 210.158 6.28412H210.16ZM229.143 12.3066C226.691 12.1454 225.955 12.112 219.747 12.112C213.538 12.112 212.803 12.1454 210.35 12.3066C208.082 12.4557 206.852 13.0001 206.032 13.4594C204.947 14.0677 204.171 14.7886 203.358 15.9597C202.586 17.0396 201.992 18.3543 201.62 19.8074C201.301 20.9875 200.922 22.7578 200.819 26.0215C200.707 29.5498 200.683 30.6083 200.683 39.5417C200.683 48.4751 200.707 49.5336 200.819 53.0619C200.922 56.3256 201.301 58.0959 201.62 59.276C201.992 60.7269 202.586 62.044 203.358 63.1237C204.108 64.234 205.023 65.0887 206.032 65.624C206.852 66.0833 208.082 66.6277 210.35 66.7768C212.803 66.938 213.536 66.9715 219.747 66.9715C225.957 66.9715 226.691 66.938 229.143 66.7768C231.411 66.6277 232.642 66.0833 233.462 65.624C234.546 65.0157 235.322 64.2948 236.136 63.1237C236.908 62.044 237.502 60.7269 237.874 59.276C238.193 58.0959 238.571 56.3256 238.675 53.0619C238.787 49.5336 238.81 48.4751 238.81 39.5417C238.81 30.6083 238.787 29.5498 238.675 26.0215C238.571 22.7578 238.193 20.9875 237.874 19.8074C237.451 18.247 236.95 17.1307 236.136 15.9597C235.385 14.8497 234.472 13.9954 233.462 13.4594C232.642 13.0001 231.411 12.4557 229.143 12.3066ZM216.777 49.856C218.435 50.8495 220.282 50.9836 222.002 50.2354C223.722 49.4871 225.208 47.903 226.206 45.7535C227.204 43.6041 227.653 41.0226 227.475 38.4501C227.298 35.8775 226.505 33.4735 225.232 31.6486C224.421 30.482 223.44 29.5888 222.36 29.0332C221.28 28.4776 220.128 28.2734 218.987 28.4354C217.845 28.5974 216.743 29.1215 215.76 29.97C214.776 30.8185 213.935 31.9702 213.298 33.3423C212.661 34.7145 212.243 36.2728 212.074 37.9052C211.906 39.5375 211.991 41.2033 212.324 42.7826C212.657 44.362 213.228 45.8155 213.998 47.0386C214.768 48.2617 215.717 49.2239 216.777 49.856ZM211.295 27.3811C212.405 25.7842 213.723 24.5174 215.173 23.6531C216.623 22.7889 218.177 22.344 219.747 22.344C221.316 22.344 222.871 22.7889 224.321 23.6531C225.771 24.5174 227.088 25.7842 228.198 27.3811C229.308 28.9781 230.188 30.8739 230.789 32.9604C231.39 35.047 231.699 37.2833 231.699 39.5417C231.699 41.8001 231.39 44.0364 230.789 46.123C230.188 48.2095 229.308 50.1053 228.198 51.7023C225.957 54.9275 222.917 56.7394 219.747 56.7394C216.577 56.7394 213.537 54.9275 211.295 51.7023C209.054 48.4771 207.795 44.1028 207.795 39.5417C207.795 34.9806 209.054 30.6063 211.295 27.3811ZM234.35 24.9052C234.625 24.5319 234.845 24.083 234.997 23.585C235.15 23.0871 235.231 22.5503 235.236 22.0063C235.242 21.4623 235.171 20.9223 235.029 20.4182C234.887 19.9141 234.676 19.4561 234.409 19.0714C234.142 18.6867 233.823 18.3831 233.473 18.1786C233.123 17.9741 232.747 17.8728 232.369 17.8807C231.991 17.8887 231.618 18.0057 231.272 18.2248C230.926 18.4439 230.614 18.7607 230.354 19.1565C229.85 19.9261 229.574 20.9484 229.584 22.0063C229.595 23.0642 229.892 24.0745 230.412 24.8226C230.932 25.5707 231.634 25.9979 232.369 26.0133C233.104 26.0287 233.815 25.6312 234.35 24.9052Z" fill="#0AC75A" fill-opacity="0.8"/>
<path fill-rule="evenodd" clip-rule="evenodd" d="M308.69 27.2807H316.168V32.9078C317.245 29.6715 320.007 26.7637 324.156 26.7637C332.111 26.7637 333.999 33.2059 333.999 45.0258V66.9167H325.946V47.7177C325.946 40.9865 324.869 37.1905 322.127 37.1905C318.324 37.1905 316.743 41.2815 316.743 47.7147V66.9167H308.69V27.2807ZM294.881 66.3996H302.934V26.7637H294.881V66.3996ZM304.088 13.8396C304.088 14.8594 303.955 15.8691 303.694 16.8101C303.434 17.751 303.053 18.6044 302.572 19.3207C301.598 20.7826 300.281 21.6009 298.908 21.5959C297.538 21.5945 296.223 20.7783 295.248 19.3238C294.769 18.605 294.389 17.7507 294.129 16.8096C293.869 15.8685 293.735 14.8593 293.734 13.8396C293.734 11.7804 294.277 9.80942 295.25 8.3555C296.224 6.89902 297.539 6.08246 298.91 6.08337C300.283 6.08337 301.6 6.90158 302.572 8.3555C303.542 9.80942 304.088 11.7804 304.088 13.8396Z" fill="#0AC75A" fill-opacity="0.8"/>
<path d="M123.614 12.1666C111.384 12.1666 101.468 27.1482 101.468 45.625C101.468 64.1017 111.384 79.0833 123.614 79.0833C135.843 79.0833 145.76 64.1017 145.76 45.625C145.76 27.1482 135.843 12.1666 123.614 12.1666ZM134.257 37.3873C134.272 37.7384 134.272 38.1043 134.272 38.4628C134.272 49.4264 128.745 62.0554 118.646 62.0554C115.532 62.0554 112.645 60.6887 110.213 58.3361C110.658 58.4108 111.083 58.4407 111.537 58.4407C114.108 58.4407 116.471 57.1263 118.354 54.9007C115.942 54.826 113.915 52.4361 113.223 49.15C114.068 49.3367 114.83 49.3367 115.7 49.0007C114.458 48.6194 113.341 47.6002 112.54 46.1163C111.739 44.6323 111.303 42.7751 111.305 40.8601V40.7556C112.032 41.3755 112.887 41.7563 113.782 41.8086C113.03 41.0513 112.413 40.0252 111.986 38.8215C111.559 37.6177 111.335 36.2734 111.335 34.9078C111.335 33.3619 111.602 31.9504 112.081 30.7255C113.46 33.2897 115.18 35.3869 117.131 36.8807C119.081 38.3746 121.217 39.2317 123.401 39.3963C122.625 33.7577 125.413 29.1945 128.765 29.1945C130.347 29.1945 131.77 30.1953 132.774 31.8085C134.014 31.4574 135.201 30.7554 136.259 29.8144C135.848 31.7338 134.988 33.3544 133.846 34.3776C134.954 34.1983 136.021 33.7353 137.01 33.0856C136.264 34.7435 135.329 36.2148 134.257 37.3873Z" fill="#0AC75A" fill-opacity="0.8"/>
</svg>
