<svg width="5" height="5" viewBox="0 0 5 5" fill="none" xmlns="http://www.w3.org/2000/svg">
<g clip-path="url(#clip0_43_66)">
<path d="M4.58335 2.12749V3.29067C4.58335 3.38456 4.53945 3.47461 4.46131 3.541C4.38317 3.6074 4.27719 3.6447 4.16669 3.6447H1.45835C1.34785 3.6447 1.24187 3.6074 1.16373 3.541C1.08559 3.47461 1.04169 3.38456 1.04169 3.29067V3.02514M4.58335 2.12749V1.87454C4.58335 1.78064 4.53945 1.6906 4.46131 1.6242C4.38317 1.55781 4.27719 1.52051 4.16669 1.52051H3.95835M4.58335 2.12749H3.95835" stroke="black" stroke-width="0.3125" stroke-linecap="round" stroke-linejoin="round"/>
<path d="M3.95835 1.52049V2.6711C3.95835 2.76499 3.91445 2.85504 3.83631 2.92144C3.75817 2.98783 3.65219 3.02513 3.54169 3.02513H0.833354C0.722847 3.02513 0.616866 2.98783 0.538726 2.92144C0.460586 2.85504 0.416687 2.76499 0.416687 2.6711V1.25497C0.416687 1.16108 0.460586 1.07103 0.538726 1.00463C0.616866 0.93824 0.722847 0.90094 0.833354 0.90094H3.54169C3.65219 0.90094 3.75817 0.93824 3.83631 1.00463C3.91445 1.07103 3.95835 1.16108 3.95835 1.25497V1.52049ZM3.95835 1.52049H1.14585" stroke="black" stroke-width="0.3125" stroke-linecap="round" stroke-linejoin="round"/>
</g>
<defs>
<clipPath id="clip0_43_66">
<rect width="5" height="4.24838" fill="white" transform="translate(0 0.10437)"/>
</clipPath>
</defs>
</svg>
