<svg width="34" height="30" viewBox="0 0 34 30" fill="none" xmlns="http://www.w3.org/2000/svg">
<path fill-rule="evenodd" clip-rule="evenodd" d="M23.5312 21.25L13.2187 15L23.5312 8.75C23.6666 8.66792 23.7829 8.5624 23.8735 8.43946C23.9641 8.31652 24.0271 8.17856 24.059 8.03347C24.091 7.88838 24.0911 7.73899 24.0595 7.59384C24.028 7.44869 23.9652 7.31061 23.8749 7.1875C23.7847 7.06438 23.6686 6.95864 23.5333 6.87631C23.3981 6.79398 23.2464 6.73666 23.0868 6.70764C22.9272 6.67863 22.7628 6.67847 22.6032 6.70718C22.4435 6.7359 22.2916 6.79292 22.1562 6.875L10.4659 13.96C10.2776 14.0742 10.1232 14.2288 10.0164 14.4102C9.90964 14.5917 9.85376 14.7942 9.85376 15C9.85376 15.2058 9.90964 15.4083 10.0164 15.5898C10.1232 15.7712 10.2776 15.9258 10.4659 16.04L22.1562 23.125C22.2916 23.2071 22.4435 23.2641 22.6032 23.2928C22.7628 23.3215 22.9272 23.3214 23.0868 23.2924C23.2464 23.2633 23.3981 23.206 23.5333 23.1237C23.6686 23.0414 23.7847 22.9356 23.8749 22.8125C23.9652 22.6894 24.028 22.5513 24.0595 22.4062C24.0911 22.261 24.091 22.1116 24.059 21.9665C24.0271 21.8214 23.9641 21.6835 23.8735 21.5605C23.7829 21.4376 23.6666 21.3321 23.5312 21.25Z" fill="white"/>
</svg>
