<svg width="110" height="77" viewBox="0 0 110 77" fill="none" xmlns="http://www.w3.org/2000/svg">
<path d="M81.1905 36.6667C97.1015 36.6667 110 45.6956 110 56.8333C110 67.9711 97.1015 77 81.1905 77C65.2794 77 52.381 67.9711 52.381 56.8333C52.381 45.6956 65.2794 36.6667 81.1905 36.6667ZM81.1905 43.9972L80.7197 44.0267C79.6506 44.1626 78.8077 44.7526 78.6136 45.501L78.5714 45.8305L78.5696 54.9972L65.4639 55L64.9931 55.0295C63.924 55.1654 63.0811 55.7554 62.887 56.5038L62.8448 56.8333L62.887 57.1629C63.0811 57.9112 63.924 58.5013 64.9931 58.6371L65.4639 58.6667L78.5748 58.6639L78.5772 67.8461L78.6194 68.1757C78.8135 68.924 79.6564 69.5141 80.7255 69.6499L81.1963 69.6794L81.6671 69.6499C82.7361 69.5141 83.5791 68.924 83.7731 68.1757L83.8153 67.8461L83.8129 58.6639L96.9287 58.6667L97.3995 58.6371C98.4685 58.5013 99.3115 57.9112 99.5055 57.1629L99.5477 56.8333L99.5055 56.5038C99.3115 55.7554 98.4685 55.1654 97.3995 55.0295L96.9287 55L83.8077 54.9972L83.8095 45.8305L83.7673 45.501C83.5733 44.7526 82.7303 44.1626 81.6613 44.0267L81.1905 43.9972ZM52.4959 43.9992C49.1074 47.7038 47.1429 52.108 47.1429 56.8333C47.1429 60.074 48.0668 63.1636 49.7404 65.9801C36.3632 65.4769 28.8095 61.5014 28.8095 54.0833V50.4167C28.8095 46.8728 32.9136 44 37.9762 44L52.4959 43.9992ZM32.0885 25.667C31.6577 26.8388 31.4286 28.0673 31.4286 29.3333C31.4286 33.4236 33.8205 37.1228 37.6787 39.783L38.5275 40.3368L37.9762 40.3333C36.3977 40.3333 34.8785 40.5111 33.4573 40.8395C28.9276 41.8862 25.3925 44.4635 24.1016 47.6966L23.9213 47.6998C8.68404 47.6998 0 43.7038 0 35.75V32.0833C0 28.7167 3.70391 25.9556 8.41486 25.6879L9.16667 25.6667L32.0885 25.667ZM52.381 18.3333C61.0597 18.3333 68.0952 23.2582 68.0952 29.3333C68.0952 35.4085 61.0597 40.3333 52.381 40.3333C43.7022 40.3333 36.6667 35.4085 36.6667 29.3333C36.6667 23.2582 43.7022 18.3333 52.381 18.3333ZM95.5952 25.6667C100.658 25.6667 104.762 28.5395 104.762 32.0833L104.756 35.6109C104.859 36.9634 104.703 38.2032 104.298 39.3301C98.2239 35.3995 90.1075 33 81.1905 33C78.1246 33 75.1534 33.2837 72.3275 33.8155C72.983 32.407 73.3333 30.8988 73.3333 29.3333C73.3333 28.0673 73.1042 26.8388 72.6734 25.667L95.5952 25.6667ZM23.5714 0C32.2502 0 39.2857 4.92487 39.2857 11C39.2857 17.0751 32.2502 22 23.5714 22C14.8927 22 7.85714 17.0751 7.85714 11C7.85714 4.92487 14.8927 0 23.5714 0ZM81.1905 0C89.8692 0 96.9048 4.92487 96.9048 11C96.9048 17.0751 89.8692 22 81.1905 22C72.5117 22 65.4762 17.0751 65.4762 11C65.4762 4.92487 72.5117 0 81.1905 0Z" fill="#212121"/>
</svg>
